M48
; DRILL file {KiCad (7.0.0)} date Mon Apr  3 18:31:58 2023
; FORMAT={-:-/ absolute / inch / decimal}
; #@! TF.CreationDate,2023-04-03T18:31:58+02:00
; #@! TF.GenerationSoftware,Kicad,Pcbnew,(7.0.0)
; #@! TF.FileFunction,Plated,1,2,PTH
FMAT,2
INCH
; #@! TA.AperFunction,Plated,PTH,ViaDrill
T1C0.0157
; #@! TA.AperFunction,Plated,PTH,ComponentDrill
T2C0.0295
; #@! TA.AperFunction,Plated,PTH,ComponentDrill
T3C0.0315
; #@! TA.AperFunction,Plated,PTH,ComponentDrill
T4C0.0354
; #@! TA.AperFunction,Plated,PTH,ComponentDrill
T5C0.0394
; #@! TA.AperFunction,Plated,PTH,ComponentDrill
T6C0.0433
; #@! TA.AperFunction,Plated,PTH,ComponentDrill
T7C0.0472
; #@! TA.AperFunction,Plated,PTH,ComponentDrill
T8C0.0866
%
G90
G05
T1
X0.0413Y-3.7205
X0.0413Y-3.8091
X0.1479Y-6.2286
X0.1728Y-3.6614
X0.2122Y-3.6609
X0.2362Y-3.374
X0.252Y-3.6614
X0.2646Y-3.4041
X0.266Y-3.702
X0.2685Y-4.3315
X0.2756Y-3.7402
X0.2889Y-3.3731
X0.315Y-4.7736
X0.3248Y-3.3465
X0.3445Y-5.0394
X0.3445Y-5.5709
X0.346Y-3.4724
X0.3738Y-3.5037
X0.4038Y-3.4742
X0.4626Y-3.4547
X0.5906Y-3.5984
X0.6299Y-3.5984
X0.6496Y-3.7441
X0.6693Y-3.5984
X0.6748Y-3.7139
X0.6806Y-6.0674
X0.6836Y-5.2121
X0.689Y-5.2559
X0.7037Y-3.6872
X0.7106Y-3.5928
X0.7244Y-5.5575
X0.7309Y-3.6587
X0.7499Y-3.5905
X0.7579Y-6.1614
X0.7588Y-3.631
X0.7776Y-4.0453
X0.7776Y-4.6457
X0.7874Y-3.6024
X0.7874Y-4.3701
X0.7874Y-4.4783
X0.7874Y-5.4035
X0.8071Y-5.9646
X0.8081Y-5.4823
X0.8169Y-4.4193
X0.8563Y-6.0138
X0.9252Y-4.6949
X0.9744Y-4.2913
X0.9744Y-6.1614
X0.9783Y-5.9449
X0.996Y-5.5925
X1.0433Y-6.2225
X1.0728Y-5.3445
X1.0827Y-5.8071
X1.1024Y-4.0059
X1.1102Y-3.5591
X1.1319Y-4.0453
X1.1319Y-6.1516
X1.1417Y-3.8661
X1.1516Y-5.6791
X1.1531Y-4.2533
X1.1595Y-4.7835
X1.1614Y-3.9665
X1.1811Y-5.8465
X1.1811Y-6.1516
X1.2008Y-3.5738
X1.22Y-5.3154
X1.2303Y-5.748
X1.233Y-3.5513
X1.25Y-5.561
X1.2658Y-3.5295
X1.2795Y-5.4823
X1.2985Y-3.5077
X1.3296Y-3.4836
X1.3386Y-5.4823
X1.3465Y-3.3445
X1.3484Y-4.611
X1.3583Y-3.4547
X1.3976Y-4.065
X1.3976Y-5.8465
X1.5256Y-6.2116
X1.5354Y-5.3543
X1.5632Y-4.4506
X1.565Y-5.4134
X1.5906Y-6.2116
X1.6142Y-4.8209
X1.6339Y-2.4506
X1.6535Y-6.1496
X1.6929Y-5.0
X1.6985Y-3.7272
X1.8406Y-5.0197
X1.8406Y-5.1083
X1.8474Y-6.1713
X1.8567Y-4.8067
X1.8701Y-5.9744
X1.9587Y-6.187
X1.998Y-3.4055
X2.0043Y-5.9898
X2.0177Y-6.187
X2.0495Y-4.7441
X2.0495Y-5.0492
X2.0532Y-5.1476
X2.0965Y-2.5506
X2.0965Y-2.7969
X2.1063Y-4.0227
X2.1752Y-2.6969
X2.2047Y-2.4506
X2.2343Y-2.7506
X2.2835Y-3.4547
X2.2835Y-4.9606
X2.3031Y-3.9665
X2.3031Y-4.0227
X2.3035Y-5.0902
X2.3745Y-5.3326
X2.3774Y-4.0157
X2.3774Y-4.2913
X2.4016Y-5.3041
X2.4167Y-4.252
X2.4311Y-5.2756
X2.4561Y-4.0551
X2.4561Y-4.7638
X2.4705Y-5.2165
X2.6136Y-4.8819
X2.653Y-4.0945
X2.6535Y-5.8032
X2.7317Y-4.3701
X2.8543Y-5.9744
X2.9285Y-4.9185
X2.9679Y-4.685
X3.0413Y-5.4232
X3.0541Y-5.8642
X3.0906Y-5.5906
X3.1004Y-6.1693
X3.1299Y-6.1034
X3.1693Y-6.1811
X3.2185Y-3.8287
X3.2992Y-6.2126
X3.3366Y-6.2441
X3.4154Y-3.3858
X3.4744Y-3.522
X3.4843Y-5.6102
X3.5433Y-5.8642
X3.9567Y-5.8268
X4.2126Y-6.2106
X4.2224Y-3.5827
X4.3406Y-6.2106
X4.3701Y-5.4134
X4.4685Y-3.6319
X4.5669Y-5.8269
X4.6457Y-6.1132
X4.685Y-5.4134
X4.7002Y-4.8031
X4.7002Y-4.9213
X4.7002Y-5.3543
X4.7047Y-4.8819
X4.7146Y-4.1929
X4.7396Y-4.685
X4.7396Y-5.315
X4.7441Y-4.7736
X4.7638Y-4.5965
X4.7789Y-5.2787
X4.7933Y-2.6506
X4.813Y-0.3431
X4.8228Y-3.9764
X4.8425Y-5.2953
X4.8524Y-0.4221
X4.8661Y-3.342
X4.8917Y-5.187
X4.897Y-5.0787
X4.9016Y-4.1929
X4.9016Y-4.8787
X4.9364Y-5.0
X4.9409Y-6.2205
X4.9508Y-5.8465
X4.9705Y-5.9744
X4.9705Y-6.0358
X5.0295Y-3.6614
X5.0634Y-5.7283
X5.0689Y-6.2106
X5.0787Y-5.935
X5.1476Y-3.5837
X5.1993Y-3.0797
X5.2264Y-3.5827
X5.2313Y-5.6496
X5.2313Y-6.0827
X5.2559Y-3.937
X5.376Y-1.7087
X5.3937Y-3.3661
X5.4203Y-4.3602
X5.4522Y-3.3641
X5.4773Y-5.7185
X5.5113Y-3.9956
X5.5521Y-5.8335
X5.5523Y-6.1505
X5.561Y-3.1683
X5.5709Y-4.2815
X5.5709Y-4.3602
X5.5709Y-4.4291
X5.5827Y-2.0945
X5.5906Y-4.5965
X5.6004Y-4.7047
X5.6004Y-5.7776
X5.6063Y-4.2421
X5.6102Y-3.1102
X5.6139Y-6.252
X5.6224Y-3.4449
X5.6299Y-3.2382
X5.6566Y-3.6942
X5.6594Y-3.3957
X5.6693Y-3.5236
X5.6791Y-3.7894
X5.7087Y-3.6969
X5.7185Y-3.7884
X5.7283Y-3.3563
X5.7677Y-3.434
X5.7731Y-3.8735
X5.7776Y-4.2913
X5.7776Y-4.5965
X5.7776Y-4.6752
X5.7874Y-6.0
X5.7874Y-6.1024
X5.8076Y-3.8391
X5.811Y-4.0472
X5.877Y-3.4449
X5.8976Y-1.4567
X5.9055Y-3.4055
X5.9252Y-2.7657
X5.937Y-1.7953
X5.9685Y-2.3937
X5.9921Y-2.4803
X6.0236Y-4.063
X6.0236Y-4.9921
X6.0551Y-1.8976
X6.1417Y-1.5039
T2
X3.4433Y-5.4724
X3.4933Y-5.4724
X3.5433Y-5.4724
X4.4776Y-5.4669
X4.5276Y-5.4669
X4.5776Y-5.4669
T3
X0.063Y-4.0256
X0.063Y-4.3209
X0.063Y-4.8996
X0.063Y-5.1949
X0.063Y-5.7106
X0.063Y-6.0059
X0.1724Y-3.8276
X0.1724Y-3.9276
X0.1724Y-4.0276
X0.1724Y-4.1276
X0.1724Y-4.2276
X0.1724Y-4.3276
X0.1724Y-4.4276
X0.1724Y-4.5276
X0.1724Y-4.6937
X0.1724Y-4.7937
X0.1724Y-4.8937
X0.1724Y-4.9937
X0.1724Y-5.0937
X0.1724Y-5.1937
X0.1724Y-5.2937
X0.1724Y-5.3937
X0.1724Y-5.5575
X0.1724Y-5.6575
X0.1724Y-5.7575
X0.1724Y-5.8575
X0.1724Y-5.9575
X0.1724Y-6.0575
X0.1724Y-6.1575
X0.4724Y-1.4409
X0.4724Y-1.5394
X0.4724Y-2.5354
X0.4724Y-2.6339
X0.4724Y-3.8276
X0.4724Y-3.9276
X0.4724Y-4.0276
X0.4724Y-4.1276
X0.4724Y-4.2276
X0.4724Y-4.3276
X0.4724Y-4.4276
X0.4724Y-4.5276
X0.4724Y-4.6937
X0.4724Y-4.7937
X0.4724Y-4.8937
X0.4724Y-4.9937
X0.4724Y-5.0937
X0.4724Y-5.1937
X0.4724Y-5.2937
X0.4724Y-5.3937
X0.4724Y-5.5575
X0.4724Y-5.6575
X0.4724Y-5.7575
X0.4724Y-5.8575
X0.4724Y-5.9575
X0.4724Y-6.0575
X0.4724Y-6.1575
X0.6055Y-3.9276
X0.6055Y-4.0276
X0.6055Y-4.1276
X0.6055Y-4.2276
X0.6055Y-4.3276
X0.6055Y-4.4276
X0.6055Y-4.5276
X0.6055Y-4.7937
X0.6055Y-4.8937
X0.6055Y-4.9937
X0.6055Y-5.0937
X0.6055Y-5.1937
X0.6055Y-5.2937
X0.6055Y-5.3937
X0.6055Y-5.5575
X0.6055Y-5.6575
X0.6055Y-5.7575
X0.6055Y-5.8575
X0.6055Y-5.9575
X0.6055Y-6.0575
X0.6055Y-6.1575
X0.8563Y-0.3545
X0.8563Y-0.4545
X0.9055Y-3.9276
X0.9055Y-4.0276
X0.9055Y-4.1276
X0.9055Y-4.2276
X0.9055Y-4.3276
X0.9055Y-4.4276
X0.9055Y-4.5276
X0.9055Y-4.7937
X0.9055Y-4.8937
X0.9055Y-4.9937
X0.9055Y-5.0937
X0.9055Y-5.1937
X0.9055Y-5.2937
X0.9055Y-5.3937
X0.9055Y-5.5575
X0.9055Y-5.6575
X0.9055Y-5.7575
X0.9055Y-5.8575
X0.9055Y-5.9575
X0.9055Y-6.0575
X0.9055Y-6.1575
X1.0386Y-3.8276
X1.0386Y-3.9276
X1.0386Y-4.0276
X1.0386Y-4.1276
X1.0386Y-4.2276
X1.0386Y-4.3276
X1.0386Y-4.4276
X1.0386Y-4.5276
X1.0386Y-4.7937
X1.0386Y-4.8937
X1.0386Y-4.9937
X1.0386Y-5.0937
X1.0386Y-5.1937
X1.0386Y-5.2937
X1.0386Y-5.3937
X1.0386Y-5.5575
X1.0386Y-5.6575
X1.0386Y-5.7575
X1.0386Y-5.8575
X1.0386Y-5.9575
X1.0386Y-6.0575
X1.0386Y-6.1575
X1.3386Y-3.8276
X1.3386Y-3.9276
X1.3386Y-4.0276
X1.3386Y-4.1276
X1.3386Y-4.2276
X1.3386Y-4.3276
X1.3386Y-4.4276
X1.3386Y-4.5276
X1.3386Y-4.7937
X1.3386Y-4.8937
X1.3386Y-4.9937
X1.3386Y-5.0937
X1.3386Y-5.1937
X1.3386Y-5.2937
X1.3386Y-5.3937
X1.3386Y-5.5575
X1.3386Y-5.6575
X1.3386Y-5.7575
X1.3386Y-5.8575
X1.3386Y-5.9575
X1.3386Y-6.0575
X1.3386Y-6.1575
X1.4717Y-3.8276
X1.4717Y-3.9276
X1.4717Y-4.0276
X1.4717Y-4.1276
X1.4717Y-4.2276
X1.4717Y-4.3276
X1.4717Y-4.4276
X1.4717Y-4.5276
X1.4717Y-4.6937
X1.4717Y-4.7937
X1.4717Y-4.8937
X1.4717Y-4.9937
X1.4717Y-5.0937
X1.4717Y-5.1937
X1.4717Y-5.2937
X1.4717Y-5.3937
X1.4717Y-5.5575
X1.4717Y-5.6575
X1.4717Y-5.7575
X1.4717Y-5.8575
X1.4717Y-5.9575
X1.4717Y-6.0575
X1.4717Y-6.1575
X1.5354Y-0.3484
X1.5354Y-0.4484
X1.5354Y-0.5484
X1.5354Y-0.6484
X1.5354Y-0.7484
X1.5354Y-0.8484
X1.5354Y-0.9484
X1.5354Y-1.0484
X1.5354Y-1.1484
X1.5354Y-1.35
X1.5354Y-1.45
X1.5354Y-1.55
X1.5354Y-1.65
X1.5354Y-1.75
X1.5354Y-1.85
X1.5354Y-1.95
X1.5354Y-2.05
X1.5354Y-2.15
X1.7717Y-3.8276
X1.7717Y-3.9276
X1.7717Y-4.0276
X1.7717Y-4.1276
X1.7717Y-4.2276
X1.7717Y-4.3276
X1.7717Y-4.4276
X1.7717Y-4.5276
X1.7717Y-4.6937
X1.7717Y-4.7937
X1.7717Y-4.8937
X1.7717Y-4.9937
X1.7717Y-5.0937
X1.7717Y-5.1937
X1.7717Y-5.2937
X1.7717Y-5.3937
X1.7717Y-5.5575
X1.7717Y-5.6575
X1.7717Y-5.7575
X1.7717Y-5.8575
X1.7717Y-5.9575
X1.7717Y-6.0575
X1.7717Y-6.1575
X1.9075Y-3.7402
X1.9075Y-3.8402
X1.9443Y-3.9913
X1.9443Y-4.0913
X1.9443Y-4.1913
X1.9443Y-4.2913
X1.9443Y-4.3913
X1.9443Y-4.4913
X1.9443Y-4.5913
X1.9443Y-4.6913
X1.9443Y-4.7913
X1.9443Y-4.8913
X1.9443Y-4.9913
X1.9443Y-5.0913
X1.9443Y-5.1913
X1.9443Y-5.2913
X1.9443Y-5.3913
X1.9443Y-5.4913
X1.9443Y-5.5913
X1.9443Y-5.6913
X1.9443Y-5.7913
X1.9443Y-5.8913
X2.0571Y-3.7386
X2.0571Y-3.8386
X2.2539Y-6.1024
X2.3228Y-0.1929
X2.3228Y-0.2913
X2.3228Y-1.1949
X2.3228Y-1.2933
X2.3228Y-2.2953
X2.3228Y-2.3937
X2.3622Y-3.4402
X2.3622Y-3.7402
X2.4622Y-3.4402
X2.4622Y-3.7402
X2.5443Y-3.9913
X2.5443Y-4.0913
X2.5443Y-4.1913
X2.5443Y-4.2913
X2.5443Y-4.3913
X2.5443Y-4.4913
X2.5443Y-4.5913
X2.5443Y-4.6913
X2.5443Y-4.7913
X2.5443Y-4.8913
X2.5443Y-4.9913
X2.5443Y-5.0913
X2.5443Y-5.1913
X2.5443Y-5.2913
X2.5443Y-5.3913
X2.5443Y-5.4913
X2.5443Y-5.5913
X2.5443Y-5.6913
X2.5443Y-5.7913
X2.5443Y-5.8913
X2.5492Y-6.1024
X2.5622Y-3.4402
X2.5622Y-3.7402
X2.6557Y-5.4528
X2.6575Y-5.315
X2.6575Y-5.5906
X2.6622Y-3.4402
X2.6622Y-3.7402
X2.7557Y-5.4528
X2.7575Y-5.315
X2.7575Y-5.5906
X2.7622Y-3.4402
X2.7622Y-3.7402
X2.7738Y-5.748
X2.8498Y-3.9945
X2.8498Y-4.0945
X2.8498Y-4.1945
X2.8498Y-4.2945
X2.8498Y-4.3945
X2.8498Y-4.4945
X2.8498Y-4.5945
X2.8498Y-4.6945
X2.8498Y-4.7945
X2.8498Y-4.8945
X2.8498Y-4.9945
X2.8498Y-5.0945
X2.8498Y-5.1945
X2.8498Y-5.2945
X2.8622Y-3.4402
X2.8622Y-3.7402
X2.8738Y-5.748
X2.874Y-5.4921
X2.874Y-5.5906
X2.9622Y-3.4402
X2.9622Y-3.7402
X2.9921Y-5.4803
X2.9921Y-5.5803
X2.9921Y-5.6803
X2.9921Y-5.7803
X3.0118Y-1.4957
X3.0118Y-1.5957
X3.0118Y-1.6957
X3.0118Y-1.7957
X3.0118Y-1.8957
X3.0118Y-1.9957
X3.0118Y-2.0957
X3.0118Y-2.1957
X3.0118Y-2.2957
X3.0622Y-3.4402
X3.0622Y-3.7402
X3.1437Y-3.8583
X3.1496Y-5.9449
X3.1496Y-6.0236
X3.1622Y-3.4402
X3.1622Y-3.7402
X3.2581Y-6.1319
X3.2622Y-3.4402
X3.2622Y-3.7402
X3.2921Y-5.4803
X3.2921Y-5.5803
X3.2921Y-5.6803
X3.2921Y-5.7803
X3.3465Y-5.9252
X3.3465Y-6.0236
X3.3581Y-6.1319
X3.439Y-3.8583
X3.4498Y-3.9945
X3.4498Y-4.0945
X3.4498Y-4.1945
X3.4498Y-4.2945
X3.4498Y-4.3945
X3.4498Y-4.4945
X3.4498Y-4.5945
X3.4498Y-4.6945
X3.4498Y-4.7945
X3.4498Y-4.8945
X3.4498Y-4.9945
X3.4498Y-5.0945
X3.4498Y-5.1945
X3.4498Y-5.2945
X3.4646Y-3.4402
X3.4646Y-3.7402
X3.5646Y-3.4402
X3.5646Y-3.7402
X3.6372Y-3.9945
X3.6372Y-4.0945
X3.6372Y-4.1945
X3.6372Y-4.2945
X3.6372Y-4.3945
X3.6372Y-4.4945
X3.6372Y-4.5945
X3.6372Y-4.6945
X3.6372Y-4.7945
X3.6372Y-4.8945
X3.6372Y-4.9945
X3.6372Y-5.0945
X3.6372Y-5.1945
X3.6372Y-5.2945
X3.6646Y-3.4402
X3.6646Y-3.7402
X3.7646Y-3.4402
X3.7646Y-3.7402
X3.8646Y-3.4402
X3.8646Y-3.7402
X3.8976Y-0.1949
X3.8976Y-0.2933
X3.8976Y-1.1949
X3.8976Y-1.2933
X3.8976Y-2.3051
X3.8976Y-2.4035
X3.9173Y-3.8583
X3.9646Y-3.4402
X3.9646Y-3.7402
X4.0646Y-3.4402
X4.0646Y-3.7402
X4.1646Y-3.4402
X4.1646Y-3.7402
X4.2126Y-3.8583
X4.2372Y-3.9945
X4.2372Y-4.0945
X4.2372Y-4.1945
X4.2372Y-4.2945
X4.2372Y-4.3945
X4.2372Y-4.4945
X4.2372Y-4.5945
X4.2372Y-4.6945
X4.2372Y-4.7945
X4.2372Y-4.8945
X4.2372Y-4.9945
X4.2372Y-5.0945
X4.2372Y-5.1945
X4.2372Y-5.2945
X4.2646Y-3.4402
X4.2646Y-3.7402
X4.3504Y-5.4921
X4.3504Y-5.5921
X4.3646Y-3.4402
X4.3646Y-3.7402
X4.4246Y-3.9945
X4.4246Y-4.0945
X4.4246Y-4.1945
X4.4246Y-4.2945
X4.4246Y-4.3945
X4.4246Y-4.4945
X4.4246Y-4.5945
X4.4246Y-4.6945
X4.4246Y-4.7945
X4.4246Y-4.8945
X4.4246Y-4.9945
X4.4246Y-5.0945
X4.4246Y-5.1945
X4.4246Y-5.2945
X4.4884Y-5.6102
X4.4884Y-6.063
X4.5669Y-3.4402
X4.5669Y-3.7402
X4.5884Y-5.6102
X4.5884Y-6.063
X4.6457Y-0.2047
X4.6457Y-0.2835
X4.6457Y-1.2108
X4.6457Y-1.2896
X4.6457Y-2.3071
X4.6457Y-2.3858
X4.6669Y-3.4402
X4.6669Y-3.7402
X4.6949Y-3.8583
X4.7244Y-5.563
X4.7244Y-5.663
X4.7244Y-5.763
X4.7244Y-5.863
X4.7244Y-5.963
X4.7244Y-6.063
X4.7669Y-3.4402
X4.7669Y-3.7402
X4.8622Y-5.463
X4.8622Y-5.563
X4.8622Y-5.663
X4.8622Y-5.763
X4.8622Y-5.863
X4.8622Y-5.963
X4.8622Y-6.063
X4.8622Y-6.163
X4.8669Y-3.4402
X4.8669Y-3.7402
X4.9669Y-3.4402
X4.9669Y-3.7402
X4.9902Y-3.8583
X5.0246Y-3.9945
X5.0246Y-4.0945
X5.0246Y-4.1945
X5.0246Y-4.2945
X5.0246Y-4.3945
X5.0246Y-4.4945
X5.0246Y-4.5945
X5.0246Y-4.6945
X5.0246Y-4.7945
X5.0246Y-4.8945
X5.0246Y-4.9945
X5.0246Y-5.0945
X5.0246Y-5.1945
X5.0246Y-5.2945
X5.0669Y-3.4402
X5.0669Y-3.7402
X5.1622Y-5.463
X5.1622Y-5.563
X5.1622Y-5.663
X5.1622Y-5.763
X5.1622Y-5.863
X5.1622Y-5.963
X5.1622Y-6.063
X5.1622Y-6.163
X5.1669Y-3.4402
X5.1669Y-3.7402
X5.2669Y-3.4402
X5.2669Y-3.7402
X5.2677Y-1.1516
X5.2677Y-1.4469
X5.3051Y-2.7756
X5.3051Y-2.8756
X5.3301Y-3.9906
X5.3301Y-4.0906
X5.3301Y-4.1906
X5.3301Y-4.2906
X5.3301Y-4.3906
X5.3301Y-4.4906
X5.3301Y-4.5906
X5.3301Y-4.6906
X5.3301Y-4.7906
X5.3301Y-4.8906
X5.3301Y-4.9906
X5.3301Y-5.0906
X5.3301Y-5.1906
X5.3301Y-5.2906
X5.3301Y-5.3906
X5.3301Y-5.4906
X5.3301Y-5.5906
X5.3301Y-5.6906
X5.3301Y-5.7906
X5.3301Y-5.8906
X5.3669Y-3.4402
X5.3669Y-3.7402
X5.3957Y-2.5197
X5.4024Y-0.5807
X5.4024Y-0.8807
X5.4035Y-0.9795
X5.4035Y-1.2795
X5.4075Y-1.7913
X5.4075Y-1.8913
X5.4075Y-1.9913
X5.4075Y-2.0913
X5.4075Y-2.1913
X5.4075Y-2.2913
X5.4075Y-2.3913
X5.4075Y-2.6526
X5.4075Y-2.7526
X5.4075Y-2.8526
X5.4075Y-2.9526
X5.4075Y-3.0526
X5.4075Y-3.1526
X5.4075Y-3.2526
X5.4478Y-1.3772
X5.4478Y-1.6772
X5.4669Y-3.4402
X5.4669Y-3.7402
X5.5024Y-0.5807
X5.5024Y-0.8807
X5.5035Y-0.9795
X5.5035Y-1.2795
X5.5478Y-1.3772
X5.5478Y-1.6772
X5.6004Y-6.0866
X5.6024Y-0.5807
X5.6024Y-0.8807
X5.6035Y-0.9795
X5.6035Y-1.2795
X5.6478Y-1.3772
X5.6478Y-1.6772
X5.6909Y-2.5197
X5.7024Y-0.5807
X5.7024Y-0.8807
X5.7035Y-0.9795
X5.7035Y-1.2795
X5.7075Y-1.7913
X5.7075Y-1.8913
X5.7075Y-1.9913
X5.7075Y-2.0913
X5.7075Y-2.1913
X5.7075Y-2.2913
X5.7075Y-2.3913
X5.7075Y-2.6526
X5.7075Y-2.7526
X5.7075Y-2.8526
X5.7075Y-2.9526
X5.7075Y-3.0526
X5.7075Y-3.1526
X5.7075Y-3.2526
X5.7478Y-1.3772
X5.7478Y-1.6772
X5.7843Y-2.5197
X5.8024Y-0.5807
X5.8024Y-0.8807
X5.8035Y-0.9795
X5.8035Y-1.2795
X5.8346Y-1.7913
X5.8346Y-1.8913
X5.8346Y-1.9913
X5.8346Y-2.0913
X5.8346Y-2.1913
X5.8346Y-2.2913
X5.8346Y-2.3913
X5.8346Y-2.6526
X5.8346Y-2.7526
X5.8346Y-2.8526
X5.8346Y-2.9526
X5.8346Y-3.0526
X5.8346Y-3.1526
X5.8346Y-3.2526
X5.8478Y-1.3772
X5.8478Y-1.6772
X5.8811Y-0.1181
X5.8811Y-0.4181
X5.8957Y-6.0866
X5.9024Y-0.5807
X5.9024Y-0.8807
X5.9035Y-0.9795
X5.9035Y-1.2795
X5.9301Y-3.9906
X5.9301Y-4.0906
X5.9301Y-4.1906
X5.9301Y-4.2906
X5.9301Y-4.3906
X5.9301Y-4.4906
X5.9301Y-4.5906
X5.9301Y-4.6906
X5.9301Y-4.7906
X5.9301Y-4.8906
X5.9301Y-4.9906
X5.9301Y-5.0906
X5.9301Y-5.1906
X5.9301Y-5.2906
X5.9301Y-5.3906
X5.9301Y-5.4906
X5.9301Y-5.5906
X5.9301Y-5.6906
X5.9301Y-5.7906
X5.9301Y-5.8906
X5.9478Y-1.3772
X5.9478Y-1.6772
X6.0Y-6.189
X6.0024Y-0.5807
X6.0024Y-0.8807
X6.0035Y-0.9795
X6.0035Y-1.2795
X6.0478Y-1.3772
X6.0478Y-1.6772
X6.0787Y-6.189
X6.1024Y-0.5807
X6.1024Y-0.8807
X6.1035Y-0.9795
X6.1035Y-1.2795
X6.1346Y-1.7913
X6.1346Y-1.8913
X6.1346Y-1.9913
X6.1346Y-2.0913
X6.1346Y-2.1913
X6.1346Y-2.2913
X6.1346Y-2.3913
X6.1346Y-2.6526
X6.1346Y-2.7526
X6.1346Y-2.8526
X6.1346Y-2.9526
X6.1346Y-3.0526
X6.1346Y-3.1526
X6.1346Y-3.2526
X6.1811Y-0.1181
X6.1811Y-0.4181
X6.1843Y-2.5197
X6.2303Y-0.5846
X6.2303Y-0.8799
X6.2303Y-0.9862
X6.2303Y-1.2815
X6.2303Y-1.3799
X6.2303Y-1.6752
T4
X0.8563Y-0.0969
X0.8563Y-0.1969
X1.9094Y-6.063
X1.9094Y-6.163
T5
X0.0709Y-0.4331
X0.0709Y-0.5331
X0.0709Y-0.6331
X0.0709Y-0.7331
X0.0709Y-0.8331
X0.0709Y-0.9331
X0.0709Y-1.0331
X0.0709Y-1.1331
X0.0709Y-1.2331
X0.0709Y-1.3331
X0.0709Y-1.4331
X0.0709Y-1.5331
X0.0709Y-1.6331
X0.0709Y-1.7331
X0.0709Y-1.8331
X0.0709Y-1.9331
X0.0709Y-2.0331
X0.0709Y-2.1331
X0.0709Y-2.2331
X0.0709Y-2.3331
X0.0709Y-2.4331
X0.0709Y-2.5331
X0.0709Y-2.6331
X0.0709Y-2.7331
X0.0709Y-2.8331
X0.0709Y-2.9331
X0.0709Y-3.0331
X0.0709Y-3.1331
X0.0709Y-3.2331
X0.0709Y-3.3331
X0.0709Y-3.4331
X0.0709Y-3.5331
X0.0719Y-0.2756
X0.1709Y-0.4331
X0.1709Y-0.5331
X0.1709Y-0.6331
X0.1709Y-0.7331
X0.1709Y-0.8331
X0.1709Y-0.9331
X0.1709Y-1.0331
X0.1709Y-1.1331
X0.1709Y-1.2331
X0.1709Y-1.3331
X0.1709Y-1.4331
X0.1709Y-1.5331
X0.1709Y-1.6331
X0.1709Y-1.7331
X0.1709Y-1.8331
X0.1709Y-1.9331
X0.1709Y-2.0331
X0.1709Y-2.1331
X0.1709Y-2.2331
X0.1709Y-2.3331
X0.1709Y-2.4331
X0.1709Y-2.5331
X0.1709Y-2.6331
X0.1709Y-2.7331
X0.1709Y-2.8331
X0.1709Y-2.9331
X0.1709Y-3.0331
X0.1709Y-3.1331
X0.1709Y-3.2331
X0.1709Y-3.3331
X0.1709Y-3.4331
X0.1709Y-3.5331
X0.1719Y-0.2756
X1.0811Y-0.1969
X1.0811Y-0.2969
X1.0811Y-0.3969
X1.0811Y-0.4969
X1.0811Y-0.5969
X1.0811Y-0.6969
X1.0811Y-0.7969
X1.0811Y-0.8969
X1.0811Y-0.9969
X1.0811Y-1.0969
X1.0811Y-1.1969
X1.0811Y-1.2969
X1.0811Y-1.3969
X1.0811Y-1.4969
X1.0811Y-1.5969
X1.0811Y-1.6969
X1.0811Y-1.7969
X1.0811Y-1.8969
X1.0811Y-1.9969
X1.0811Y-2.0969
X1.0811Y-2.1969
X1.0811Y-2.2969
X1.0811Y-2.3969
X1.0811Y-2.4969
X1.0811Y-2.5969
X1.0811Y-2.6969
X1.0811Y-2.7969
X1.0811Y-2.8969
X1.0811Y-2.9969
X1.0811Y-3.0969
X1.0811Y-3.1969
X1.0811Y-3.2969
X1.1811Y-0.1969
X1.1811Y-0.2969
X1.1811Y-0.3969
X1.1811Y-0.4969
X1.1811Y-0.5969
X1.1811Y-0.6969
X1.1811Y-0.7969
X1.1811Y-0.8969
X1.1811Y-0.9969
X1.1811Y-1.0969
X1.1811Y-1.1969
X1.1811Y-1.2969
X1.1811Y-1.3969
X1.1811Y-1.4969
X1.1811Y-1.5969
X1.1811Y-1.6969
X1.1811Y-1.7969
X1.1811Y-1.8969
X1.1811Y-1.9969
X1.1811Y-2.0969
X1.1811Y-2.1969
X1.1811Y-2.2969
X1.1811Y-2.3969
X1.1811Y-2.4969
X1.1811Y-2.5969
X1.1811Y-2.6969
X1.1811Y-2.7969
X1.1811Y-2.8969
X1.1811Y-2.9969
X1.1811Y-3.0969
X1.1811Y-3.1969
X1.1811Y-3.2969
X1.8685Y-0.1969
X1.8685Y-0.2969
X1.8685Y-0.3969
X1.8685Y-0.4969
X1.8685Y-0.5969
X1.8685Y-0.6969
X1.8685Y-0.7969
X1.8685Y-0.8969
X1.8685Y-0.9969
X1.8685Y-1.0969
X1.8685Y-1.1969
X1.8685Y-1.2969
X1.8685Y-1.3969
X1.8685Y-1.4969
X1.8685Y-1.5969
X1.8685Y-1.6969
X1.8685Y-1.7969
X1.8685Y-1.8969
X1.8685Y-1.9969
X1.8685Y-2.0969
X1.8685Y-2.1969
X1.8685Y-2.2969
X1.8685Y-2.3969
X1.8685Y-2.4969
X1.8685Y-2.5969
X1.8685Y-2.6969
X1.8685Y-2.7969
X1.8685Y-2.8969
X1.8685Y-2.9969
X1.8685Y-3.0969
X1.8685Y-3.1969
X1.8685Y-3.2969
X1.9685Y-0.1969
X1.9685Y-0.2969
X1.9685Y-0.3969
X1.9685Y-0.4969
X1.9685Y-0.5969
X1.9685Y-0.6969
X1.9685Y-0.7969
X1.9685Y-0.8969
X1.9685Y-0.9969
X1.9685Y-1.0969
X1.9685Y-1.1969
X1.9685Y-1.2969
X1.9685Y-1.3969
X1.9685Y-1.4969
X1.9685Y-1.5969
X1.9685Y-1.6969
X1.9685Y-1.7969
X1.9685Y-1.8969
X1.9685Y-1.9969
X1.9685Y-2.0969
X1.9685Y-2.1969
X1.9685Y-2.2969
X1.9685Y-2.3969
X1.9685Y-2.4969
X1.9685Y-2.5969
X1.9685Y-2.6969
X1.9685Y-2.7969
X1.9685Y-2.8969
X1.9685Y-2.9969
X1.9685Y-3.0969
X1.9685Y-3.1969
X1.9685Y-3.2969
X2.6559Y-0.1969
X2.6559Y-0.2969
X2.6559Y-0.3969
X2.6559Y-0.4969
X2.6559Y-0.5969
X2.6559Y-0.6969
X2.6559Y-0.7969
X2.6559Y-0.8969
X2.6559Y-0.9969
X2.6559Y-1.0969
X2.6559Y-1.1969
X2.6559Y-1.2969
X2.6559Y-1.3969
X2.6559Y-1.4969
X2.6559Y-1.5969
X2.6559Y-1.6969
X2.6559Y-1.7969
X2.6559Y-1.8969
X2.6559Y-1.9969
X2.6559Y-2.0969
X2.6559Y-2.1969
X2.6559Y-2.2969
X2.6559Y-2.3969
X2.6559Y-2.4969
X2.6559Y-2.5969
X2.6559Y-2.6969
X2.6559Y-2.7969
X2.6559Y-2.8969
X2.6559Y-2.9969
X2.6559Y-3.0969
X2.6559Y-3.1969
X2.6559Y-3.2969
X2.7559Y-0.1969
X2.7559Y-0.2969
X2.7559Y-0.3969
X2.7559Y-0.4969
X2.7559Y-0.5969
X2.7559Y-0.6969
X2.7559Y-0.7969
X2.7559Y-0.8969
X2.7559Y-0.9969
X2.7559Y-1.0969
X2.7559Y-1.1969
X2.7559Y-1.2969
X2.7559Y-1.3969
X2.7559Y-1.4969
X2.7559Y-1.5969
X2.7559Y-1.6969
X2.7559Y-1.7969
X2.7559Y-1.8969
X2.7559Y-1.9969
X2.7559Y-2.0969
X2.7559Y-2.1969
X2.7559Y-2.2969
X2.7559Y-2.3969
X2.7559Y-2.4969
X2.7559Y-2.5969
X2.7559Y-2.6969
X2.7559Y-2.7969
X2.7559Y-2.8969
X2.7559Y-2.9969
X2.7559Y-3.0969
X2.7559Y-3.1969
X2.7559Y-3.2969
X3.4433Y-0.1969
X3.4433Y-0.2969
X3.4433Y-0.3969
X3.4433Y-0.4969
X3.4433Y-0.5969
X3.4433Y-0.6969
X3.4433Y-0.7969
X3.4433Y-0.8969
X3.4433Y-0.9969
X3.4433Y-1.0969
X3.4433Y-1.1969
X3.4433Y-1.2969
X3.4433Y-1.3969
X3.4433Y-1.4969
X3.4433Y-1.5969
X3.4433Y-1.6969
X3.4433Y-1.7969
X3.4433Y-1.8969
X3.4433Y-1.9969
X3.4433Y-2.0969
X3.4433Y-2.1969
X3.4433Y-2.2969
X3.4433Y-2.3969
X3.4433Y-2.4969
X3.4433Y-2.5969
X3.4433Y-2.6969
X3.4433Y-2.7969
X3.4433Y-2.8969
X3.4433Y-2.9969
X3.4433Y-3.0969
X3.4433Y-3.1969
X3.4433Y-3.2969
X3.5433Y-0.1969
X3.5433Y-0.2969
X3.5433Y-0.3969
X3.5433Y-0.4969
X3.5433Y-0.5969
X3.5433Y-0.6969
X3.5433Y-0.7969
X3.5433Y-0.8969
X3.5433Y-0.9969
X3.5433Y-1.0969
X3.5433Y-1.1969
X3.5433Y-1.2969
X3.5433Y-1.3969
X3.5433Y-1.4969
X3.5433Y-1.5969
X3.5433Y-1.6969
X3.5433Y-1.7969
X3.5433Y-1.8969
X3.5433Y-1.9969
X3.5433Y-2.0969
X3.5433Y-2.1969
X3.5433Y-2.2969
X3.5433Y-2.3969
X3.5433Y-2.4969
X3.5433Y-2.5969
X3.5433Y-2.6969
X3.5433Y-2.7969
X3.5433Y-2.8969
X3.5433Y-2.9969
X3.5433Y-3.0969
X3.5433Y-3.1969
X3.5433Y-3.2969
X4.2307Y-0.1969
X4.2307Y-0.2969
X4.2307Y-0.3969
X4.2307Y-0.4969
X4.2307Y-0.5969
X4.2307Y-0.6969
X4.2307Y-0.7969
X4.2307Y-0.8969
X4.2307Y-0.9969
X4.2307Y-1.0969
X4.2307Y-1.1969
X4.2307Y-1.2969
X4.2307Y-1.3969
X4.2307Y-1.4969
X4.2307Y-1.5969
X4.2307Y-1.6969
X4.2307Y-1.7969
X4.2307Y-1.8969
X4.2307Y-1.9969
X4.2307Y-2.0969
X4.2307Y-2.1969
X4.2307Y-2.2969
X4.2307Y-2.3969
X4.2307Y-2.4969
X4.2307Y-2.5969
X4.2307Y-2.6969
X4.2307Y-2.7969
X4.2307Y-2.8969
X4.2307Y-2.9969
X4.2307Y-3.0969
X4.2307Y-3.1969
X4.2307Y-3.2969
X4.3307Y-0.1969
X4.3307Y-0.2969
X4.3307Y-0.3969
X4.3307Y-0.4969
X4.3307Y-0.5969
X4.3307Y-0.6969
X4.3307Y-0.7969
X4.3307Y-0.8969
X4.3307Y-0.9969
X4.3307Y-1.0969
X4.3307Y-1.1969
X4.3307Y-1.2969
X4.3307Y-1.3969
X4.3307Y-1.4969
X4.3307Y-1.5969
X4.3307Y-1.6969
X4.3307Y-1.7969
X4.3307Y-1.8969
X4.3307Y-1.9969
X4.3307Y-2.0969
X4.3307Y-2.1969
X4.3307Y-2.2969
X4.3307Y-2.3969
X4.3307Y-2.4969
X4.3307Y-2.5969
X4.3307Y-2.6969
X4.3307Y-2.7969
X4.3307Y-2.8969
X4.3307Y-2.9969
X4.3307Y-3.0969
X4.3307Y-3.1969
X4.3307Y-3.2969
X4.5276Y-6.2008
X4.6276Y-6.2008
X4.7276Y-6.2008
X5.0181Y-0.1969
X5.0181Y-0.2969
X5.0181Y-0.3969
X5.0181Y-0.4969
X5.0181Y-0.5969
X5.0181Y-0.6969
X5.0181Y-0.7969
X5.0181Y-0.8969
X5.0181Y-0.9969
X5.0181Y-1.0969
X5.0181Y-1.1969
X5.0181Y-1.2969
X5.0181Y-1.3969
X5.0181Y-1.4969
X5.0181Y-1.5969
X5.0181Y-1.6969
X5.0181Y-1.7969
X5.0181Y-1.8969
X5.0181Y-1.9969
X5.0181Y-2.0969
X5.0181Y-2.1969
X5.0181Y-2.2969
X5.0181Y-2.3969
X5.0181Y-2.4969
X5.0181Y-2.5969
X5.0181Y-2.6969
X5.0181Y-2.7969
X5.0181Y-2.8969
X5.0181Y-2.9969
X5.0181Y-3.0969
X5.0181Y-3.1969
X5.0181Y-3.2969
X5.1181Y-0.1969
X5.1181Y-0.2969
X5.1181Y-0.3969
X5.1181Y-0.4969
X5.1181Y-0.5969
X5.1181Y-0.6969
X5.1181Y-0.7969
X5.1181Y-0.8969
X5.1181Y-0.9969
X5.1181Y-1.0969
X5.1181Y-1.1969
X5.1181Y-1.2969
X5.1181Y-1.3969
X5.1181Y-1.4969
X5.1181Y-1.5969
X5.1181Y-1.6969
X5.1181Y-1.7969
X5.1181Y-1.8969
X5.1181Y-1.9969
X5.1181Y-2.0969
X5.1181Y-2.1969
X5.1181Y-2.2969
X5.1181Y-2.3969
X5.1181Y-2.4969
X5.1181Y-2.5969
X5.1181Y-2.6969
X5.1181Y-2.7969
X5.1181Y-2.8969
X5.1181Y-2.9969
X5.1181Y-3.0969
X5.1181Y-3.1969
X5.1181Y-3.2969
X5.2677Y-0.1575
X5.2677Y-0.2575
X5.2677Y-0.3575
X5.2677Y-0.5118
X5.2677Y-0.6118
X5.2677Y-0.7118
X5.315Y-6.0925
X5.315Y-6.1925
X5.3522Y-3.8583
X5.4094Y-0.1575
X5.4094Y-0.2575
X5.4094Y-0.3575
X5.4522Y-3.8583
X5.4626Y-6.0925
X5.4626Y-6.1925
X5.5512Y-0.1575
X5.5512Y-0.2575
X5.5512Y-0.3575
X5.5522Y-3.8583
X5.6874Y-6.2205
X5.6929Y-0.1575
X5.6929Y-0.2575
X5.6929Y-0.3575
X5.7362Y-3.622
X5.7874Y-6.2205
X6.0354Y-3.622
X6.2205Y-3.8425
X6.2205Y-3.9425
X6.2205Y-4.0425
X6.2205Y-4.1425
X6.2205Y-4.2425
X6.2205Y-4.3425
X6.2205Y-4.4425
X6.2205Y-4.5425
X6.2205Y-4.6425
X6.2205Y-4.7425
X6.2205Y-4.8819
X6.2205Y-4.9819
X6.2205Y-5.0819
X6.2205Y-5.1819
X6.2205Y-5.2819
X6.2205Y-5.3819
X6.2205Y-5.4819
X6.2205Y-5.5819
X6.2205Y-5.6819
X6.2205Y-5.7819
X6.2205Y-5.926
X6.2205Y-6.026
X6.2205Y-6.126
X6.2205Y-6.226
T6
X2.7264Y-5.935
X2.7264Y-6.1122
X2.9823Y-5.935
X2.9823Y-6.1122
X3.4744Y-5.7382
X3.4744Y-5.9154
X3.7303Y-5.7382
X3.7303Y-5.9154
X3.8484Y-5.4429
X3.8484Y-5.6201
X3.8484Y-5.7382
X3.8484Y-5.9154
X3.8484Y-6.0335
X3.8484Y-6.2106
X4.1043Y-5.4429
X4.1043Y-5.6201
X4.1043Y-5.7382
X4.1043Y-5.9154
X4.1043Y-6.0335
X4.1043Y-6.2106
X4.2224Y-5.7382
X4.2224Y-5.9154
X4.4783Y-5.7382
X4.4783Y-5.9154
T7
X0.4414Y-1.0472
X0.7367Y-1.0472
T8
X0.1181Y-0.1181
X2.0866Y-6.063
X4.8031Y-0.1181
X6.063Y-5.9055
T5
G00X0.3268Y-0.3937
M15
G01X0.3268Y-0.4724
M16
G05
G00X0.5512Y-0.315
M15
G01X0.4724Y-0.315
M16
G05
G00X0.5512Y-0.5512
M15
G01X0.4724Y-0.5512
M16
G05
T0
M30
