%TF.GenerationSoftware,KiCad,Pcbnew,(7.0.0)*%
%TF.CreationDate,2023-04-03T18:31:55+02:00*%
%TF.ProjectId,EXP6502,45585036-3530-4322-9e6b-696361645f70,rev?*%
%TF.SameCoordinates,Original*%
%TF.FileFunction,Soldermask,Top*%
%TF.FilePolarity,Negative*%
%FSLAX46Y46*%
G04 Gerber Fmt 4.6, Leading zero omitted, Abs format (unit mm)*
G04 Created by KiCad (PCBNEW (7.0.0)) date 2023-04-03 18:31:55*
%MOMM*%
%LPD*%
G01*
G04 APERTURE LIST*
G04 Aperture macros list*
%AMRoundRect*
0 Rectangle with rounded corners*
0 $1 Rounding radius*
0 $2 $3 $4 $5 $6 $7 $8 $9 X,Y pos of 4 corners*
0 Add a 4 corners polygon primitive as box body*
4,1,4,$2,$3,$4,$5,$6,$7,$8,$9,$2,$3,0*
0 Add four circle primitives for the rounded corners*
1,1,$1+$1,$2,$3*
1,1,$1+$1,$4,$5*
1,1,$1+$1,$6,$7*
1,1,$1+$1,$8,$9*
0 Add four rect primitives between the rounded corners*
20,1,$1+$1,$2,$3,$4,$5,0*
20,1,$1+$1,$4,$5,$6,$7,0*
20,1,$1+$1,$6,$7,$8,$9,0*
20,1,$1+$1,$8,$9,$2,$3,0*%
G04 Aperture macros list end*
%ADD10C,1.600000*%
%ADD11O,1.600000X1.600000*%
%ADD12R,1.600000X1.600000*%
%ADD13R,1.700000X1.700000*%
%ADD14O,1.700000X1.700000*%
%ADD15C,3.800000*%
%ADD16R,1.050000X1.500000*%
%ADD17O,1.050000X1.500000*%
%ADD18C,2.000000*%
%ADD19R,2.000000X2.000000*%
%ADD20R,1.800000X1.800000*%
%ADD21C,1.800000*%
%ADD22R,3.500000X3.500000*%
%ADD23RoundRect,0.750000X-1.000000X0.750000X-1.000000X-0.750000X1.000000X-0.750000X1.000000X0.750000X0*%
%ADD24RoundRect,0.875000X-0.875000X0.875000X-0.875000X-0.875000X0.875000X-0.875000X0.875000X0.875000X0*%
%ADD25R,2.400000X2.400000*%
%ADD26C,2.400000*%
G04 APERTURE END LIST*
D10*
%TO.C,R2*%
X21750000Y-11545000D03*
D11*
X21749999Y-9004999D03*
%TD*%
D12*
%TO.C,U15*%
X22999999Y-136999999D03*
D11*
X22999999Y-134459999D03*
X22999999Y-131919999D03*
X22999999Y-129379999D03*
X22999999Y-126839999D03*
X22999999Y-124299999D03*
X22999999Y-121759999D03*
X15379999Y-121759999D03*
X15379999Y-124299999D03*
X15379999Y-126839999D03*
X15379999Y-129379999D03*
X15379999Y-131919999D03*
X15379999Y-134459999D03*
X15379999Y-136999999D03*
%TD*%
D13*
%TO.C,J11*%
X4364999Y-6999999D03*
D14*
X1824999Y-6999999D03*
%TD*%
D12*
%TO.C,U5*%
X112384999Y-101459999D03*
D11*
X112384999Y-103999999D03*
X112384999Y-106539999D03*
X112384999Y-109079999D03*
X112384999Y-111619999D03*
X112384999Y-114159999D03*
X112384999Y-116699999D03*
X112384999Y-119239999D03*
X112384999Y-121779999D03*
X112384999Y-124319999D03*
X112384999Y-126859999D03*
X112384999Y-129399999D03*
X112384999Y-131939999D03*
X112384999Y-134479999D03*
X127624999Y-134479999D03*
X127624999Y-131939999D03*
X127624999Y-129399999D03*
X127624999Y-126859999D03*
X127624999Y-124319999D03*
X127624999Y-121779999D03*
X127624999Y-119239999D03*
X127624999Y-116699999D03*
X127624999Y-114159999D03*
X127624999Y-111619999D03*
X127624999Y-109079999D03*
X127624999Y-106539999D03*
X127624999Y-103999999D03*
X127624999Y-101459999D03*
%TD*%
D12*
%TO.C,U3*%
X72384999Y-101459999D03*
D11*
X72384999Y-103999999D03*
X72384999Y-106539999D03*
X72384999Y-109079999D03*
X72384999Y-111619999D03*
X72384999Y-114159999D03*
X72384999Y-116699999D03*
X72384999Y-119239999D03*
X72384999Y-121779999D03*
X72384999Y-124319999D03*
X72384999Y-126859999D03*
X72384999Y-129399999D03*
X72384999Y-131939999D03*
X72384999Y-134479999D03*
X87624999Y-134479999D03*
X87624999Y-131939999D03*
X87624999Y-129399999D03*
X87624999Y-126859999D03*
X87624999Y-124319999D03*
X87624999Y-121779999D03*
X87624999Y-119239999D03*
X87624999Y-116699999D03*
X87624999Y-114159999D03*
X87624999Y-111619999D03*
X87624999Y-109079999D03*
X87624999Y-106539999D03*
X87624999Y-103999999D03*
X87624999Y-101459999D03*
%TD*%
D13*
%TO.C,J4*%
X69999999Y-4999999D03*
D14*
X67459999Y-4999999D03*
X69999999Y-7539999D03*
X67459999Y-7539999D03*
X69999999Y-10079999D03*
X67459999Y-10079999D03*
X69999999Y-12619999D03*
X67459999Y-12619999D03*
X69999999Y-15159999D03*
X67459999Y-15159999D03*
X69999999Y-17699999D03*
X67459999Y-17699999D03*
X69999999Y-20239999D03*
X67459999Y-20239999D03*
X69999999Y-22779999D03*
X67459999Y-22779999D03*
X69999999Y-25319999D03*
X67459999Y-25319999D03*
X69999999Y-27859999D03*
X67459999Y-27859999D03*
X69999999Y-30399999D03*
X67459999Y-30399999D03*
X69999999Y-32939999D03*
X67459999Y-32939999D03*
X69999999Y-35479999D03*
X67459999Y-35479999D03*
X69999999Y-38019999D03*
X67459999Y-38019999D03*
X69999999Y-40559999D03*
X67459999Y-40559999D03*
X69999999Y-43099999D03*
X67459999Y-43099999D03*
X69999999Y-45639999D03*
X67459999Y-45639999D03*
X69999999Y-48179999D03*
X67459999Y-48179999D03*
X69999999Y-50719999D03*
X67459999Y-50719999D03*
X69999999Y-53259999D03*
X67459999Y-53259999D03*
X69999999Y-55799999D03*
X67459999Y-55799999D03*
X69999999Y-58339999D03*
X67459999Y-58339999D03*
X69999999Y-60879999D03*
X67459999Y-60879999D03*
X69999999Y-63419999D03*
X67459999Y-63419999D03*
X69999999Y-65959999D03*
X67459999Y-65959999D03*
X69999999Y-68499999D03*
X67459999Y-68499999D03*
X69999999Y-71039999D03*
X67459999Y-71039999D03*
X69999999Y-73579999D03*
X67459999Y-73579999D03*
X69999999Y-76119999D03*
X67459999Y-76119999D03*
X69999999Y-78659999D03*
X67459999Y-78659999D03*
X69999999Y-81199999D03*
X67459999Y-81199999D03*
X69999999Y-83739999D03*
X67459999Y-83739999D03*
%TD*%
D13*
%TO.C,J6*%
X109999999Y-4999999D03*
D14*
X107459999Y-4999999D03*
X109999999Y-7539999D03*
X107459999Y-7539999D03*
X109999999Y-10079999D03*
X107459999Y-10079999D03*
X109999999Y-12619999D03*
X107459999Y-12619999D03*
X109999999Y-15159999D03*
X107459999Y-15159999D03*
X109999999Y-17699999D03*
X107459999Y-17699999D03*
X109999999Y-20239999D03*
X107459999Y-20239999D03*
X109999999Y-22779999D03*
X107459999Y-22779999D03*
X109999999Y-25319999D03*
X107459999Y-25319999D03*
X109999999Y-27859999D03*
X107459999Y-27859999D03*
X109999999Y-30399999D03*
X107459999Y-30399999D03*
X109999999Y-32939999D03*
X107459999Y-32939999D03*
X109999999Y-35479999D03*
X107459999Y-35479999D03*
X109999999Y-38019999D03*
X107459999Y-38019999D03*
X109999999Y-40559999D03*
X107459999Y-40559999D03*
X109999999Y-43099999D03*
X107459999Y-43099999D03*
X109999999Y-45639999D03*
X107459999Y-45639999D03*
X109999999Y-48179999D03*
X107459999Y-48179999D03*
X109999999Y-50719999D03*
X107459999Y-50719999D03*
X109999999Y-53259999D03*
X107459999Y-53259999D03*
X109999999Y-55799999D03*
X107459999Y-55799999D03*
X109999999Y-58339999D03*
X107459999Y-58339999D03*
X109999999Y-60879999D03*
X107459999Y-60879999D03*
X109999999Y-63419999D03*
X107459999Y-63419999D03*
X109999999Y-65959999D03*
X107459999Y-65959999D03*
X109999999Y-68499999D03*
X107459999Y-68499999D03*
X109999999Y-71039999D03*
X107459999Y-71039999D03*
X109999999Y-73579999D03*
X107459999Y-73579999D03*
X109999999Y-76119999D03*
X107459999Y-76119999D03*
X109999999Y-78659999D03*
X107459999Y-78659999D03*
X109999999Y-81199999D03*
X107459999Y-81199999D03*
X109999999Y-83739999D03*
X107459999Y-83739999D03*
%TD*%
D12*
%TO.C,U11*%
X33999999Y-156399999D03*
D11*
X33999999Y-153859999D03*
X33999999Y-151319999D03*
X33999999Y-148779999D03*
X33999999Y-146239999D03*
X33999999Y-143699999D03*
X33999999Y-141159999D03*
X26379999Y-141159999D03*
X26379999Y-143699999D03*
X26379999Y-146239999D03*
X26379999Y-148779999D03*
X26379999Y-151319999D03*
X26379999Y-153859999D03*
X26379999Y-156399999D03*
%TD*%
D12*
%TO.C,U1*%
X64624999Y-149639999D03*
D11*
X64624999Y-147099999D03*
X64624999Y-144559999D03*
X64624999Y-142019999D03*
X64624999Y-139479999D03*
X64624999Y-136939999D03*
X64624999Y-134399999D03*
X64624999Y-131859999D03*
X64624999Y-129319999D03*
X64624999Y-126779999D03*
X64624999Y-124239999D03*
X64624999Y-121699999D03*
X64624999Y-119159999D03*
X64624999Y-116619999D03*
X64624999Y-114079999D03*
X64624999Y-111539999D03*
X64624999Y-108999999D03*
X64624999Y-106459999D03*
X64624999Y-103919999D03*
X64624999Y-101379999D03*
X49384999Y-101379999D03*
X49384999Y-103919999D03*
X49384999Y-106459999D03*
X49384999Y-108999999D03*
X49384999Y-111539999D03*
X49384999Y-114079999D03*
X49384999Y-116619999D03*
X49384999Y-119159999D03*
X49384999Y-121699999D03*
X49384999Y-124239999D03*
X49384999Y-126779999D03*
X49384999Y-129319999D03*
X49384999Y-131859999D03*
X49384999Y-134399999D03*
X49384999Y-136939999D03*
X49384999Y-139479999D03*
X49384999Y-142019999D03*
X49384999Y-144559999D03*
X49384999Y-147099999D03*
X49384999Y-149639999D03*
%TD*%
D10*
%TO.C,R5*%
X134750000Y-73040000D03*
D11*
X134749999Y-70499999D03*
%TD*%
D12*
%TO.C,U29*%
X123499999Y-138759999D03*
D11*
X123499999Y-141299999D03*
X123499999Y-143839999D03*
X123499999Y-146379999D03*
X123499999Y-148919999D03*
X123499999Y-151459999D03*
X123499999Y-153999999D03*
X123499999Y-156539999D03*
X131119999Y-156539999D03*
X131119999Y-153999999D03*
X131119999Y-151459999D03*
X131119999Y-148919999D03*
X131119999Y-146379999D03*
X131119999Y-143839999D03*
X131119999Y-141299999D03*
X131119999Y-138759999D03*
%TD*%
D12*
%TO.C,U2*%
X150624999Y-149619999D03*
D11*
X150624999Y-147079999D03*
X150624999Y-144539999D03*
X150624999Y-141999999D03*
X150624999Y-139459999D03*
X150624999Y-136919999D03*
X150624999Y-134379999D03*
X150624999Y-131839999D03*
X150624999Y-129299999D03*
X150624999Y-126759999D03*
X150624999Y-124219999D03*
X150624999Y-121679999D03*
X150624999Y-119139999D03*
X150624999Y-116599999D03*
X150624999Y-114059999D03*
X150624999Y-111519999D03*
X150624999Y-108979999D03*
X150624999Y-106439999D03*
X150624999Y-103899999D03*
X150624999Y-101359999D03*
X135384999Y-101359999D03*
X135384999Y-103899999D03*
X135384999Y-106439999D03*
X135384999Y-108979999D03*
X135384999Y-111519999D03*
X135384999Y-114059999D03*
X135384999Y-116599999D03*
X135384999Y-119139999D03*
X135384999Y-121679999D03*
X135384999Y-124219999D03*
X135384999Y-126759999D03*
X135384999Y-129299999D03*
X135384999Y-131839999D03*
X135384999Y-134379999D03*
X135384999Y-136919999D03*
X135384999Y-139459999D03*
X135384999Y-141999999D03*
X135384999Y-144539999D03*
X135384999Y-147079999D03*
X135384999Y-149619999D03*
%TD*%
D10*
%TO.C,C25*%
X12000000Y-39100000D03*
X12000000Y-36600000D03*
%TD*%
D15*
%TO.C,H2*%
X122000000Y-3000000D03*
%TD*%
D12*
%TO.C,U27*%
X138374999Y-42599999D03*
D11*
X140914999Y-42599999D03*
X143454999Y-42599999D03*
X145994999Y-42599999D03*
X148534999Y-42599999D03*
X151074999Y-42599999D03*
X153614999Y-42599999D03*
X153614999Y-34979999D03*
X151074999Y-34979999D03*
X148534999Y-34979999D03*
X145994999Y-34979999D03*
X143454999Y-34979999D03*
X140914999Y-34979999D03*
X138374999Y-34979999D03*
%TD*%
D10*
%TO.C,C3*%
X87350000Y-98000000D03*
D11*
X79849999Y-97999999D03*
%TD*%
D10*
%TO.C,R13*%
X116545000Y-154000000D03*
D11*
X114004999Y-153999999D03*
%TD*%
D10*
%TO.C,C8*%
X1600000Y-152550000D03*
D11*
X1599999Y-145049999D03*
%TD*%
D10*
%TO.C,R9*%
X67455000Y-138500000D03*
D11*
X69994999Y-138499999D03*
%TD*%
D13*
%TO.C,JP3*%
X133799999Y-3999999D03*
D14*
X133799999Y-6539999D03*
X133799999Y-9079999D03*
%TD*%
D10*
%TO.C,C21*%
X99000000Y-58550000D03*
X99000000Y-61050000D03*
%TD*%
D13*
%TO.C,J7*%
X129999999Y-4999999D03*
D14*
X127459999Y-4999999D03*
X129999999Y-7539999D03*
X127459999Y-7539999D03*
X129999999Y-10079999D03*
X127459999Y-10079999D03*
X129999999Y-12619999D03*
X127459999Y-12619999D03*
X129999999Y-15159999D03*
X127459999Y-15159999D03*
X129999999Y-17699999D03*
X127459999Y-17699999D03*
X129999999Y-20239999D03*
X127459999Y-20239999D03*
X129999999Y-22779999D03*
X127459999Y-22779999D03*
X129999999Y-25319999D03*
X127459999Y-25319999D03*
X129999999Y-27859999D03*
X127459999Y-27859999D03*
X129999999Y-30399999D03*
X127459999Y-30399999D03*
X129999999Y-32939999D03*
X127459999Y-32939999D03*
X129999999Y-35479999D03*
X127459999Y-35479999D03*
X129999999Y-38019999D03*
X127459999Y-38019999D03*
X129999999Y-40559999D03*
X127459999Y-40559999D03*
X129999999Y-43099999D03*
X127459999Y-43099999D03*
X129999999Y-45639999D03*
X127459999Y-45639999D03*
X129999999Y-48179999D03*
X127459999Y-48179999D03*
X129999999Y-50719999D03*
X127459999Y-50719999D03*
X129999999Y-53259999D03*
X127459999Y-53259999D03*
X129999999Y-55799999D03*
X127459999Y-55799999D03*
X129999999Y-58339999D03*
X127459999Y-58339999D03*
X129999999Y-60879999D03*
X127459999Y-60879999D03*
X129999999Y-63419999D03*
X127459999Y-63419999D03*
X129999999Y-65959999D03*
X127459999Y-65959999D03*
X129999999Y-68499999D03*
X127459999Y-68499999D03*
X129999999Y-71039999D03*
X127459999Y-71039999D03*
X129999999Y-73579999D03*
X127459999Y-73579999D03*
X129999999Y-76119999D03*
X127459999Y-76119999D03*
X129999999Y-78659999D03*
X127459999Y-78659999D03*
X129999999Y-81199999D03*
X127459999Y-81199999D03*
X129999999Y-83739999D03*
X127459999Y-83739999D03*
%TD*%
D10*
%TO.C,R8*%
X67500000Y-135000000D03*
D11*
X70039999Y-134999999D03*
%TD*%
D12*
%TO.C,C13*%
X152399999Y-157199999D03*
D10*
X154400000Y-157200000D03*
%TD*%
D12*
%TO.C,U25*%
X148199999Y-45499999D03*
D11*
X148199999Y-48039999D03*
X148199999Y-50579999D03*
X148199999Y-53119999D03*
X148199999Y-55659999D03*
X148199999Y-58199999D03*
X148199999Y-60739999D03*
X155819999Y-60739999D03*
X155819999Y-58199999D03*
X155819999Y-55659999D03*
X155819999Y-53119999D03*
X155819999Y-50579999D03*
X155819999Y-48039999D03*
X155819999Y-45499999D03*
%TD*%
D12*
%TO.C,RN4*%
X76499999Y-58309999D03*
D11*
X76499999Y-55769999D03*
X76499999Y-53229999D03*
X76499999Y-50689999D03*
X76499999Y-48149999D03*
X76499999Y-45609999D03*
X76499999Y-43069999D03*
X76499999Y-40529999D03*
X76499999Y-37989999D03*
%TD*%
D12*
%TO.C,U19*%
X59999999Y-94999999D03*
D11*
X62539999Y-94999999D03*
X65079999Y-94999999D03*
X67619999Y-94999999D03*
X70159999Y-94999999D03*
X72699999Y-94999999D03*
X75239999Y-94999999D03*
X77779999Y-94999999D03*
X80319999Y-94999999D03*
X82859999Y-94999999D03*
X82859999Y-87379999D03*
X80319999Y-87379999D03*
X77779999Y-87379999D03*
X75239999Y-87379999D03*
X72699999Y-87379999D03*
X70159999Y-87379999D03*
X67619999Y-87379999D03*
X65079999Y-87379999D03*
X62539999Y-87379999D03*
X59999999Y-87379999D03*
%TD*%
D13*
%TO.C,J2*%
X29999999Y-4999999D03*
D14*
X27459999Y-4999999D03*
X29999999Y-7539999D03*
X27459999Y-7539999D03*
X29999999Y-10079999D03*
X27459999Y-10079999D03*
X29999999Y-12619999D03*
X27459999Y-12619999D03*
X29999999Y-15159999D03*
X27459999Y-15159999D03*
X29999999Y-17699999D03*
X27459999Y-17699999D03*
X29999999Y-20239999D03*
X27459999Y-20239999D03*
X29999999Y-22779999D03*
X27459999Y-22779999D03*
X29999999Y-25319999D03*
X27459999Y-25319999D03*
X29999999Y-27859999D03*
X27459999Y-27859999D03*
X29999999Y-30399999D03*
X27459999Y-30399999D03*
X29999999Y-32939999D03*
X27459999Y-32939999D03*
X29999999Y-35479999D03*
X27459999Y-35479999D03*
X29999999Y-38019999D03*
X27459999Y-38019999D03*
X29999999Y-40559999D03*
X27459999Y-40559999D03*
X29999999Y-43099999D03*
X27459999Y-43099999D03*
X29999999Y-45639999D03*
X27459999Y-45639999D03*
X29999999Y-48179999D03*
X27459999Y-48179999D03*
X29999999Y-50719999D03*
X27459999Y-50719999D03*
X29999999Y-53259999D03*
X27459999Y-53259999D03*
X29999999Y-55799999D03*
X27459999Y-55799999D03*
X29999999Y-58339999D03*
X27459999Y-58339999D03*
X29999999Y-60879999D03*
X27459999Y-60879999D03*
X29999999Y-63419999D03*
X27459999Y-63419999D03*
X29999999Y-65959999D03*
X27459999Y-65959999D03*
X29999999Y-68499999D03*
X27459999Y-68499999D03*
X29999999Y-71039999D03*
X27459999Y-71039999D03*
X29999999Y-73579999D03*
X27459999Y-73579999D03*
X29999999Y-76119999D03*
X27459999Y-76119999D03*
X29999999Y-78659999D03*
X27459999Y-78659999D03*
X29999999Y-81199999D03*
X27459999Y-81199999D03*
X29999999Y-83739999D03*
X27459999Y-83739999D03*
%TD*%
D10*
%TO.C,C2*%
X142250000Y-154600000D03*
D11*
X149749999Y-154599999D03*
%TD*%
D10*
%TO.C,R6*%
X85295000Y-155750000D03*
D11*
X82754999Y-155749999D03*
%TD*%
D10*
%TO.C,C27*%
X73000000Y-142000000D03*
X73000000Y-139500000D03*
%TD*%
D15*
%TO.C,H3*%
X53000000Y-154000000D03*
%TD*%
D13*
%TO.C,J5*%
X89999999Y-4999999D03*
D14*
X87459999Y-4999999D03*
X89999999Y-7539999D03*
X87459999Y-7539999D03*
X89999999Y-10079999D03*
X87459999Y-10079999D03*
X89999999Y-12619999D03*
X87459999Y-12619999D03*
X89999999Y-15159999D03*
X87459999Y-15159999D03*
X89999999Y-17699999D03*
X87459999Y-17699999D03*
X89999999Y-20239999D03*
X87459999Y-20239999D03*
X89999999Y-22779999D03*
X87459999Y-22779999D03*
X89999999Y-25319999D03*
X87459999Y-25319999D03*
X89999999Y-27859999D03*
X87459999Y-27859999D03*
X89999999Y-30399999D03*
X87459999Y-30399999D03*
X89999999Y-32939999D03*
X87459999Y-32939999D03*
X89999999Y-35479999D03*
X87459999Y-35479999D03*
X89999999Y-38019999D03*
X87459999Y-38019999D03*
X89999999Y-40559999D03*
X87459999Y-40559999D03*
X89999999Y-43099999D03*
X87459999Y-43099999D03*
X89999999Y-45639999D03*
X87459999Y-45639999D03*
X89999999Y-48179999D03*
X87459999Y-48179999D03*
X89999999Y-50719999D03*
X87459999Y-50719999D03*
X89999999Y-53259999D03*
X87459999Y-53259999D03*
X89999999Y-55799999D03*
X87459999Y-55799999D03*
X89999999Y-58339999D03*
X87459999Y-58339999D03*
X89999999Y-60879999D03*
X87459999Y-60879999D03*
X89999999Y-63419999D03*
X87459999Y-63419999D03*
X89999999Y-65959999D03*
X87459999Y-65959999D03*
X89999999Y-68499999D03*
X87459999Y-68499999D03*
X89999999Y-71039999D03*
X87459999Y-71039999D03*
X89999999Y-73579999D03*
X87459999Y-73579999D03*
X89999999Y-76119999D03*
X87459999Y-76119999D03*
X89999999Y-78659999D03*
X87459999Y-78659999D03*
X89999999Y-81199999D03*
X87459999Y-81199999D03*
X89999999Y-83739999D03*
X87459999Y-83739999D03*
%TD*%
D10*
%TO.C,C10*%
X133800000Y-29250000D03*
D11*
X133799999Y-36749999D03*
%TD*%
D13*
%TO.C,JP2*%
X137399999Y-3999999D03*
D14*
X137399999Y-6539999D03*
X137399999Y-9079999D03*
%TD*%
D12*
%TO.C,U10*%
X11999999Y-156399999D03*
D11*
X11999999Y-153859999D03*
X11999999Y-151319999D03*
X11999999Y-148779999D03*
X11999999Y-146239999D03*
X11999999Y-143699999D03*
X11999999Y-141159999D03*
X4379999Y-141159999D03*
X4379999Y-143699999D03*
X4379999Y-146239999D03*
X4379999Y-148779999D03*
X4379999Y-151319999D03*
X4379999Y-153859999D03*
X4379999Y-156399999D03*
%TD*%
D15*
%TO.C,H1*%
X3000000Y-3000000D03*
%TD*%
D16*
%TO.C,Q1*%
X89999999Y-138999999D03*
D17*
X88729999Y-138999999D03*
X87459999Y-138999999D03*
%TD*%
D10*
%TO.C,C16*%
X158250000Y-42550000D03*
D11*
X158249999Y-35049999D03*
%TD*%
D10*
%TO.C,C19*%
X99000000Y-7450000D03*
X99000000Y-4950000D03*
%TD*%
%TO.C,C14*%
X158250000Y-22350000D03*
D11*
X158249999Y-14849999D03*
%TD*%
D10*
%TO.C,C1*%
X64750000Y-155000000D03*
D11*
X57249999Y-154999999D03*
%TD*%
D12*
%TO.C,U8*%
X33999999Y-114999999D03*
D11*
X33999999Y-112459999D03*
X33999999Y-109919999D03*
X33999999Y-107379999D03*
X33999999Y-104839999D03*
X33999999Y-102299999D03*
X33999999Y-99759999D03*
X33999999Y-97219999D03*
X26379999Y-97219999D03*
X26379999Y-99759999D03*
X26379999Y-102299999D03*
X26379999Y-104839999D03*
X26379999Y-107379999D03*
X26379999Y-109919999D03*
X26379999Y-112459999D03*
X26379999Y-114999999D03*
%TD*%
D10*
%TO.C,R4*%
X52250000Y-97500000D03*
D11*
X52249999Y-94959999D03*
%TD*%
D13*
%TO.C,JP6*%
X134999999Y-154749999D03*
D14*
X134999999Y-157289999D03*
%TD*%
D12*
%TO.C,U21*%
X137349999Y-67374999D03*
D11*
X137349999Y-69914999D03*
X137349999Y-72454999D03*
X137349999Y-74994999D03*
X137349999Y-77534999D03*
X137349999Y-80074999D03*
X137349999Y-82614999D03*
X144969999Y-82614999D03*
X144969999Y-80074999D03*
X144969999Y-77534999D03*
X144969999Y-74994999D03*
X144969999Y-72454999D03*
X144969999Y-69914999D03*
X144969999Y-67374999D03*
%TD*%
D18*
%TO.C,SW5*%
X97750000Y-145750000D03*
X104250000Y-145750000D03*
X97750000Y-150250000D03*
X104250000Y-150250000D03*
%TD*%
D12*
%TO.C,U23*%
X154999999Y-14749999D03*
D11*
X152459999Y-14749999D03*
X149919999Y-14749999D03*
X147379999Y-14749999D03*
X144839999Y-14749999D03*
X142299999Y-14749999D03*
X139759999Y-14749999D03*
X137219999Y-14749999D03*
X137219999Y-22369999D03*
X139759999Y-22369999D03*
X142299999Y-22369999D03*
X144839999Y-22369999D03*
X147379999Y-22369999D03*
X149919999Y-22369999D03*
X152459999Y-22369999D03*
X154999999Y-22369999D03*
%TD*%
D13*
%TO.C,JP5*%
X138749999Y-154749999D03*
D14*
X138749999Y-157289999D03*
%TD*%
D12*
%TO.C,RN1*%
X119999999Y-153999999D03*
D11*
X119999999Y-151459999D03*
X119999999Y-148919999D03*
X119999999Y-146379999D03*
X119999999Y-143839999D03*
X119999999Y-141299999D03*
%TD*%
D12*
%TO.C,C29*%
X79999999Y-150999999D03*
D10*
X80000000Y-153000000D03*
%TD*%
%TO.C,R11*%
X116545000Y-142500000D03*
D11*
X114004999Y-142499999D03*
%TD*%
D10*
%TO.C,C26*%
X12000000Y-64400000D03*
X12000000Y-66900000D03*
%TD*%
D12*
%TO.C,U28*%
X75999999Y-139199999D03*
D11*
X75999999Y-141739999D03*
X75999999Y-144279999D03*
X75999999Y-146819999D03*
X83619999Y-146819999D03*
X83619999Y-144279999D03*
X83619999Y-141739999D03*
X83619999Y-139199999D03*
%TD*%
D10*
%TO.C,R7*%
X67500000Y-142000000D03*
D11*
X70039999Y-141999999D03*
%TD*%
D13*
%TO.C,JP9*%
X133799999Y-12999999D03*
D14*
X133799999Y-15539999D03*
X133799999Y-18079999D03*
%TD*%
D10*
%TO.C,C15*%
X158250000Y-32550000D03*
D11*
X158249999Y-25049999D03*
%TD*%
D13*
%TO.C,J1*%
X4339999Y-10999999D03*
D14*
X1799999Y-10999999D03*
X4339999Y-13539999D03*
X1799999Y-13539999D03*
X4339999Y-16079999D03*
X1799999Y-16079999D03*
X4339999Y-18619999D03*
X1799999Y-18619999D03*
X4339999Y-21159999D03*
X1799999Y-21159999D03*
X4339999Y-23699999D03*
X1799999Y-23699999D03*
X4339999Y-26239999D03*
X1799999Y-26239999D03*
X4339999Y-28779999D03*
X1799999Y-28779999D03*
X4339999Y-31319999D03*
X1799999Y-31319999D03*
X4339999Y-33859999D03*
X1799999Y-33859999D03*
X4339999Y-36399999D03*
X1799999Y-36399999D03*
X4339999Y-38939999D03*
X1799999Y-38939999D03*
X4339999Y-41479999D03*
X1799999Y-41479999D03*
X4339999Y-44019999D03*
X1799999Y-44019999D03*
X4339999Y-46559999D03*
X1799999Y-46559999D03*
X4339999Y-49099999D03*
X1799999Y-49099999D03*
X4339999Y-51639999D03*
X1799999Y-51639999D03*
X4339999Y-54179999D03*
X1799999Y-54179999D03*
X4339999Y-56719999D03*
X1799999Y-56719999D03*
X4339999Y-59259999D03*
X1799999Y-59259999D03*
X4339999Y-61799999D03*
X1799999Y-61799999D03*
X4339999Y-64339999D03*
X1799999Y-64339999D03*
X4339999Y-66879999D03*
X1799999Y-66879999D03*
X4339999Y-69419999D03*
X1799999Y-69419999D03*
X4339999Y-71959999D03*
X1799999Y-71959999D03*
X4339999Y-74499999D03*
X1799999Y-74499999D03*
X4339999Y-77039999D03*
X1799999Y-77039999D03*
X4339999Y-79579999D03*
X1799999Y-79579999D03*
X4339999Y-82119999D03*
X1799999Y-82119999D03*
X4339999Y-84659999D03*
X1799999Y-84659999D03*
X4339999Y-87199999D03*
X1799999Y-87199999D03*
X4339999Y-89739999D03*
X1799999Y-89739999D03*
%TD*%
D13*
%TO.C,J10*%
X157999999Y-158139999D03*
D14*
X157999999Y-155599999D03*
X157999999Y-153059999D03*
X157999999Y-150519999D03*
%TD*%
D10*
%TO.C,C22*%
X59000000Y-7400000D03*
X59000000Y-4900000D03*
%TD*%
D13*
%TO.C,JP7*%
X114999999Y-157499999D03*
D14*
X117539999Y-157499999D03*
X120079999Y-157499999D03*
%TD*%
D12*
%TO.C,C12*%
X117999999Y-7199999D03*
D10*
X118000000Y-5200000D03*
%TD*%
D12*
%TO.C,U13*%
X22999999Y-114999999D03*
D11*
X22999999Y-112459999D03*
X22999999Y-109919999D03*
X22999999Y-107379999D03*
X22999999Y-104839999D03*
X22999999Y-102299999D03*
X22999999Y-99759999D03*
X15379999Y-99759999D03*
X15379999Y-102299999D03*
X15379999Y-104839999D03*
X15379999Y-107379999D03*
X15379999Y-109919999D03*
X15379999Y-112459999D03*
X15379999Y-114999999D03*
%TD*%
D15*
%TO.C,H4*%
X154000000Y-150000000D03*
%TD*%
D10*
%TO.C,R10*%
X70455000Y-146000000D03*
D11*
X72994999Y-145999999D03*
%TD*%
D12*
%TO.C,U17*%
X44999999Y-136999999D03*
D11*
X44999999Y-134459999D03*
X44999999Y-131919999D03*
X44999999Y-129379999D03*
X44999999Y-126839999D03*
X44999999Y-124299999D03*
X44999999Y-121759999D03*
X44999999Y-119219999D03*
X37379999Y-119219999D03*
X37379999Y-121759999D03*
X37379999Y-124299999D03*
X37379999Y-126839999D03*
X37379999Y-129379999D03*
X37379999Y-131919999D03*
X37379999Y-134459999D03*
X37379999Y-136999999D03*
%TD*%
D18*
%TO.C,SW4*%
X107250000Y-145750000D03*
X113750000Y-145750000D03*
X107250000Y-150250000D03*
X113750000Y-150250000D03*
%TD*%
D13*
%TO.C,JP1*%
X140999999Y-3999999D03*
D14*
X140999999Y-6539999D03*
X140999999Y-9079999D03*
%TD*%
D12*
%TO.C,U7*%
X11999999Y-114999999D03*
D11*
X11999999Y-112459999D03*
X11999999Y-109919999D03*
X11999999Y-107379999D03*
X11999999Y-104839999D03*
X11999999Y-102299999D03*
X11999999Y-99759999D03*
X11999999Y-97219999D03*
X4379999Y-97219999D03*
X4379999Y-99759999D03*
X4379999Y-102299999D03*
X4379999Y-104839999D03*
X4379999Y-107379999D03*
X4379999Y-109919999D03*
X4379999Y-112459999D03*
X4379999Y-114999999D03*
%TD*%
D12*
%TO.C,U22*%
X148199999Y-67374999D03*
D11*
X148199999Y-69914999D03*
X148199999Y-72454999D03*
X148199999Y-74994999D03*
X148199999Y-77534999D03*
X148199999Y-80074999D03*
X148199999Y-82614999D03*
X155819999Y-82614999D03*
X155819999Y-80074999D03*
X155819999Y-77534999D03*
X155819999Y-74994999D03*
X155819999Y-72454999D03*
X155819999Y-69914999D03*
X155819999Y-67374999D03*
%TD*%
D19*
%TO.C,LS1*%
X145699999Y-91999999D03*
D18*
X153300000Y-92000000D03*
%TD*%
%TO.C,SW3*%
X88250000Y-145750000D03*
X94750000Y-145750000D03*
X88250000Y-150250000D03*
X94750000Y-150250000D03*
%TD*%
D13*
%TO.C,J8*%
X157999999Y-146859999D03*
D14*
X157999999Y-144319999D03*
X157999999Y-141779999D03*
X157999999Y-139239999D03*
X157999999Y-136699999D03*
X157999999Y-134159999D03*
X157999999Y-131619999D03*
X157999999Y-129079999D03*
X157999999Y-126539999D03*
X157999999Y-123999999D03*
%TD*%
D12*
%TO.C,C17*%
X117999999Y-32755112D03*
D10*
X118000000Y-30755113D03*
%TD*%
D12*
%TO.C,RN3*%
X38999999Y-34289999D03*
D11*
X38999999Y-36829999D03*
X38999999Y-39369999D03*
X38999999Y-41909999D03*
X38999999Y-44449999D03*
X38999999Y-46989999D03*
X38999999Y-49529999D03*
X38999999Y-52069999D03*
X38999999Y-54609999D03*
%TD*%
D13*
%TO.C,JP4*%
X146999999Y-157999999D03*
D14*
X144459999Y-157999999D03*
%TD*%
D12*
%TO.C,U9*%
X22999999Y-156399999D03*
D11*
X22999999Y-153859999D03*
X22999999Y-151319999D03*
X22999999Y-148779999D03*
X22999999Y-146239999D03*
X22999999Y-143699999D03*
X22999999Y-141159999D03*
X15379999Y-141159999D03*
X15379999Y-143699999D03*
X15379999Y-146239999D03*
X15379999Y-148779999D03*
X15379999Y-151319999D03*
X15379999Y-153859999D03*
X15379999Y-156399999D03*
%TD*%
D10*
%TO.C,C28*%
X85000000Y-150500000D03*
X85000000Y-153000000D03*
%TD*%
%TO.C,C7*%
X1600000Y-131950000D03*
D11*
X1599999Y-124449999D03*
%TD*%
D10*
%TO.C,C20*%
X99000000Y-32850000D03*
X99000000Y-30350000D03*
%TD*%
D12*
%TO.C,U20*%
X115999999Y-94999999D03*
D11*
X118539999Y-94999999D03*
X121079999Y-94999999D03*
X123619999Y-94999999D03*
X126159999Y-94999999D03*
X128699999Y-94999999D03*
X131239999Y-94999999D03*
X133779999Y-94999999D03*
X136319999Y-94999999D03*
X138859999Y-94999999D03*
X138859999Y-87379999D03*
X136319999Y-87379999D03*
X133779999Y-87379999D03*
X131239999Y-87379999D03*
X128699999Y-87379999D03*
X126159999Y-87379999D03*
X123619999Y-87379999D03*
X121079999Y-87379999D03*
X118539999Y-87379999D03*
X115999999Y-87379999D03*
%TD*%
D16*
%TO.C,Q2*%
X113729999Y-138859999D03*
D17*
X114999999Y-138859999D03*
X116269999Y-138859999D03*
%TD*%
D12*
%TO.C,U14*%
X33999999Y-136999999D03*
D11*
X33999999Y-134459999D03*
X33999999Y-131919999D03*
X33999999Y-129379999D03*
X33999999Y-126839999D03*
X33999999Y-124299999D03*
X33999999Y-121759999D03*
X26379999Y-121759999D03*
X26379999Y-124299999D03*
X26379999Y-126839999D03*
X26379999Y-129379999D03*
X26379999Y-131919999D03*
X26379999Y-134459999D03*
X26379999Y-136999999D03*
%TD*%
D13*
%TO.C,JP8*%
X141024999Y-97999999D03*
D14*
X138484999Y-97999999D03*
X135944999Y-97999999D03*
%TD*%
D18*
%TO.C,SW2*%
X97750000Y-153250000D03*
X104250000Y-153250000D03*
X97750000Y-157750000D03*
X104250000Y-157750000D03*
%TD*%
D12*
%TO.C,U24*%
X137249999Y-32499999D03*
D11*
X139789999Y-32499999D03*
X142329999Y-32499999D03*
X144869999Y-32499999D03*
X147409999Y-32499999D03*
X149949999Y-32499999D03*
X152489999Y-32499999D03*
X155029999Y-32499999D03*
X155029999Y-24879999D03*
X152489999Y-24879999D03*
X149949999Y-24879999D03*
X147409999Y-24879999D03*
X144869999Y-24879999D03*
X142329999Y-24879999D03*
X139789999Y-24879999D03*
X137249999Y-24879999D03*
%TD*%
D12*
%TO.C,C18*%
X117999999Y-58599999D03*
D10*
X118000000Y-60600000D03*
%TD*%
%TO.C,C23*%
X59000000Y-32850000D03*
X59000000Y-30350000D03*
%TD*%
%TO.C,C6*%
X1600000Y-109750000D03*
D11*
X1599999Y-102249999D03*
%TD*%
D18*
%TO.C,SW1*%
X97750000Y-138250000D03*
X104250000Y-138250000D03*
X97750000Y-142750000D03*
X104250000Y-142750000D03*
%TD*%
D10*
%TO.C,R12*%
X110500000Y-139500000D03*
D11*
X110499999Y-142039999D03*
%TD*%
D10*
%TO.C,C9*%
X144550000Y-64000000D03*
D11*
X137049999Y-63999999D03*
%TD*%
D13*
%TO.C,J3*%
X49999999Y-4999999D03*
D14*
X47459999Y-4999999D03*
X49999999Y-7539999D03*
X47459999Y-7539999D03*
X49999999Y-10079999D03*
X47459999Y-10079999D03*
X49999999Y-12619999D03*
X47459999Y-12619999D03*
X49999999Y-15159999D03*
X47459999Y-15159999D03*
X49999999Y-17699999D03*
X47459999Y-17699999D03*
X49999999Y-20239999D03*
X47459999Y-20239999D03*
X49999999Y-22779999D03*
X47459999Y-22779999D03*
X49999999Y-25319999D03*
X47459999Y-25319999D03*
X49999999Y-27859999D03*
X47459999Y-27859999D03*
X49999999Y-30399999D03*
X47459999Y-30399999D03*
X49999999Y-32939999D03*
X47459999Y-32939999D03*
X49999999Y-35479999D03*
X47459999Y-35479999D03*
X49999999Y-38019999D03*
X47459999Y-38019999D03*
X49999999Y-40559999D03*
X47459999Y-40559999D03*
X49999999Y-43099999D03*
X47459999Y-43099999D03*
X49999999Y-45639999D03*
X47459999Y-45639999D03*
X49999999Y-48179999D03*
X47459999Y-48179999D03*
X49999999Y-50719999D03*
X47459999Y-50719999D03*
X49999999Y-53259999D03*
X47459999Y-53259999D03*
X49999999Y-55799999D03*
X47459999Y-55799999D03*
X49999999Y-58339999D03*
X47459999Y-58339999D03*
X49999999Y-60879999D03*
X47459999Y-60879999D03*
X49999999Y-63419999D03*
X47459999Y-63419999D03*
X49999999Y-65959999D03*
X47459999Y-65959999D03*
X49999999Y-68499999D03*
X47459999Y-68499999D03*
X49999999Y-71039999D03*
X47459999Y-71039999D03*
X49999999Y-73579999D03*
X47459999Y-73579999D03*
X49999999Y-76119999D03*
X47459999Y-76119999D03*
X49999999Y-78659999D03*
X47459999Y-78659999D03*
X49999999Y-81199999D03*
X47459999Y-81199999D03*
X49999999Y-83739999D03*
X47459999Y-83739999D03*
%TD*%
D12*
%TO.C,U16*%
X44999999Y-114999999D03*
D11*
X44999999Y-112459999D03*
X44999999Y-109919999D03*
X44999999Y-107379999D03*
X44999999Y-104839999D03*
X44999999Y-102299999D03*
X44999999Y-99759999D03*
X44999999Y-97219999D03*
X37379999Y-97219999D03*
X37379999Y-99759999D03*
X37379999Y-102299999D03*
X37379999Y-104839999D03*
X37379999Y-107379999D03*
X37379999Y-109919999D03*
X37379999Y-112459999D03*
X37379999Y-114999999D03*
%TD*%
D12*
%TO.C,U26*%
X137349999Y-45499999D03*
D11*
X137349999Y-48039999D03*
X137349999Y-50579999D03*
X137349999Y-53119999D03*
X137349999Y-55659999D03*
X137349999Y-58199999D03*
X137349999Y-60739999D03*
X144969999Y-60739999D03*
X144969999Y-58199999D03*
X144969999Y-55659999D03*
X144969999Y-53119999D03*
X144969999Y-50579999D03*
X144969999Y-48039999D03*
X144969999Y-45499999D03*
%TD*%
D12*
%TO.C,RN2*%
X38999999Y-29169999D03*
D11*
X38999999Y-26629999D03*
X38999999Y-24089999D03*
X38999999Y-21549999D03*
X38999999Y-19009999D03*
X38999999Y-16469999D03*
X38999999Y-13929999D03*
X38999999Y-11389999D03*
X38999999Y-8849999D03*
%TD*%
D20*
%TO.C,D1*%
X48499999Y-153999999D03*
D21*
X48500000Y-156540000D03*
%TD*%
D10*
%TO.C,R1*%
X157080000Y-64000000D03*
D11*
X146919999Y-63999999D03*
%TD*%
D12*
%TO.C,U4*%
X92384999Y-101459999D03*
D11*
X92384999Y-103999999D03*
X92384999Y-106539999D03*
X92384999Y-109079999D03*
X92384999Y-111619999D03*
X92384999Y-114159999D03*
X92384999Y-116699999D03*
X92384999Y-119239999D03*
X92384999Y-121779999D03*
X92384999Y-124319999D03*
X92384999Y-126859999D03*
X92384999Y-129399999D03*
X92384999Y-131939999D03*
X92384999Y-134479999D03*
X107624999Y-134479999D03*
X107624999Y-131939999D03*
X107624999Y-129399999D03*
X107624999Y-126859999D03*
X107624999Y-124319999D03*
X107624999Y-121779999D03*
X107624999Y-119239999D03*
X107624999Y-116699999D03*
X107624999Y-114159999D03*
X107624999Y-111619999D03*
X107624999Y-109079999D03*
X107624999Y-106539999D03*
X107624999Y-103999999D03*
X107624999Y-101459999D03*
%TD*%
D13*
%TO.C,J9*%
X157999999Y-120459999D03*
D14*
X157999999Y-117919999D03*
X157999999Y-115379999D03*
X157999999Y-112839999D03*
X157999999Y-110299999D03*
X157999999Y-107759999D03*
X157999999Y-105219999D03*
X157999999Y-102679999D03*
X157999999Y-100139999D03*
X157999999Y-97599999D03*
%TD*%
D12*
%TO.C,X1*%
X149379999Y-10619999D03*
D10*
X157000000Y-10620000D03*
X157000000Y-3000000D03*
X149380000Y-3000000D03*
%TD*%
%TO.C,C5*%
X126750000Y-98000000D03*
D11*
X119249999Y-97999999D03*
%TD*%
D12*
%TO.C,U18*%
X87999999Y-94999999D03*
D11*
X90539999Y-94999999D03*
X93079999Y-94999999D03*
X95619999Y-94999999D03*
X98159999Y-94999999D03*
X100699999Y-94999999D03*
X103239999Y-94999999D03*
X105779999Y-94999999D03*
X108319999Y-94999999D03*
X110859999Y-94999999D03*
X110859999Y-87379999D03*
X108319999Y-87379999D03*
X105779999Y-87379999D03*
X103239999Y-87379999D03*
X100699999Y-87379999D03*
X98159999Y-87379999D03*
X95619999Y-87379999D03*
X93079999Y-87379999D03*
X90539999Y-87379999D03*
X87999999Y-87379999D03*
%TD*%
D20*
%TO.C,D2*%
X21749999Y-4999999D03*
D21*
X21750000Y-2460000D03*
%TD*%
D10*
%TO.C,C4*%
X107000000Y-98000000D03*
D11*
X99499999Y-97999999D03*
%TD*%
D12*
%TO.C,U12*%
X44999999Y-156399999D03*
D11*
X44999999Y-153859999D03*
X44999999Y-151319999D03*
X44999999Y-148779999D03*
X44999999Y-146239999D03*
X44999999Y-143699999D03*
X44999999Y-141159999D03*
X37379999Y-141159999D03*
X37379999Y-143699999D03*
X37379999Y-146239999D03*
X37379999Y-148779999D03*
X37379999Y-151319999D03*
X37379999Y-153859999D03*
X37379999Y-156399999D03*
%TD*%
D22*
%TO.C,J0*%
X12999999Y-13999999D03*
D23*
X13000000Y-8000000D03*
D24*
X8300000Y-11000000D03*
%TD*%
D25*
%TO.C,C11*%
X18712754Y-26599999D03*
D26*
X11212755Y-26600000D03*
%TD*%
D13*
%TO.C,JP0*%
X144599999Y-3999999D03*
D14*
X144599999Y-6539999D03*
X144599999Y-9079999D03*
%TD*%
D12*
%TO.C,U6*%
X11999999Y-136999999D03*
D11*
X11999999Y-134459999D03*
X11999999Y-131919999D03*
X11999999Y-129379999D03*
X11999999Y-126839999D03*
X11999999Y-124299999D03*
X11999999Y-121759999D03*
X11999999Y-119219999D03*
X4379999Y-119219999D03*
X4379999Y-121759999D03*
X4379999Y-124299999D03*
X4379999Y-126839999D03*
X4379999Y-129379999D03*
X4379999Y-131919999D03*
X4379999Y-134459999D03*
X4379999Y-136999999D03*
%TD*%
D10*
%TO.C,C24*%
X59000000Y-58300000D03*
X59000000Y-60800000D03*
%TD*%
D18*
%TO.C,SW6*%
X75750000Y-155250000D03*
X69250000Y-155250000D03*
X75750000Y-150750000D03*
X69250000Y-150750000D03*
%TD*%
D10*
%TO.C,R3*%
X48450000Y-97540000D03*
D11*
X48449999Y-94999999D03*
%TD*%
M02*
